<?xml version="1.0" encoding="UTF-8" standalone="no"?>
<svg xmlns="http://www.w3.org/2000/svg" xmlns:xlink="http://www.w3.org/1999/xlink" width="576.886mm" height="85.885mm" viewBox="-738.442810 257.057434 576.885620 85.885132">
    <path transform="matrix(-1,0,0,1,0,0)" style="stroke:none;fill:#0A2547;fill-rule:evenodd" d="M173.987076,342.7211C173.506943,342.624146,172.426636,342.424622,171.586411,342.277649C169.523438,341.91684,166.218597,340.745239,165.123962,339.986664C163.773697,339.050934,162.773026,337.687378,162.140198,335.920837C161.654724,334.565613,161.568344,333.955811,161.55864,331.815277C161.547668,329.393036,161.573975,329.24707,162.279755,327.812988C164.344162,323.618317,167.813599,322.260315,177.588074,321.821045C180.967407,321.669189,181.793854,321.564453,182.65799,321.178467C183.883392,320.631134,184.79007,319.784698,184.79007,319.188049C184.79007,318.457642,183.746338,317.464539,182.481277,316.991241C180.632324,316.299438,174.381577,316.348267,169.138138,317.095459C167.003723,317.399597,164.916595,317.741394,164.500107,317.85498C164.083603,317.968536,163.678192,317.989746,163.599197,317.90213C163.520203,317.814484,163.403641,316.144745,163.340195,314.191559C163.210968,310.21405,163.222107,310.17807,164.705322,309.778687C166.029556,309.422089,172.004852,308.720001,175.11087,308.55603C178.317307,308.386749,182.228943,308.707184,184.878082,309.35614C190.584106,310.753937,193.301514,314.014526,193.301514,319.463318C193.301514,323.158569,191.765839,325.88385,188.835281,327.389282C185.962387,328.865112,183.640213,329.331848,176.605972,329.847412C171.477356,330.223297,171.044617,330.287903,170.586365,330.746155C170.303207,331.029297,170.167831,331.469147,170.167831,332.105957C170.167831,333.238464,170.868698,334.005188,172.266449,334.401733C173.639023,334.791107,183.104248,334.736969,185.791168,334.324341C187.940384,333.994293,190.279388,333.666351,192.264862,333.416687L193.301514,333.286316L193.315506,334.244263C193.323212,334.771118,193.356888,336.282471,193.39035,337.602844C193.472824,340.856354,193.459381,340.899597,192.243851,341.294098C188.763214,342.423767,177.049225,343.339355,173.987076,342.7211z"/>
    <path transform="matrix(-1,0,0,1,0,0)" style="stroke:none;fill:#0A2547;fill-rule:evenodd" d="M388.519257,342.271729C386.238647,341.928436,384.107086,341.537659,383.782501,341.403381C383.03363,341.093506,382.906738,340.321075,382.996826,336.620758L383.063202,333.892731L384.37265,333.911072C385.092865,333.921173,386.65564,334.093048,387.84552,334.292999C390.397156,334.721802,399.528442,334.80896,400.936707,334.417969C402.120972,334.089142,404.042267,332.766327,404.565704,331.919403C405.445526,330.49585,405.646423,329.278137,405.648926,325.354156C405.651428,321.397186,405.46936,320.380127,404.547516,319.201721C403.832733,318.287994,402.444427,317.453796,400.84668,316.977966C398.314392,316.223816,392.243195,316.380432,384.872162,317.390076C384.186646,317.483948,383.538605,317.50354,383.432098,317.433533C383.206451,317.285309,382.907898,311.419189,383.090454,310.721039C383.274841,310.015991,383.980164,309.793701,387.755402,309.250793C393.776062,308.38504,397.046509,308.269653,400.849945,308.788788C405.480713,309.420898,407.658203,310.344482,410.237366,312.770599C412.968658,315.339752,414.007538,317.842529,414.380096,322.75061C414.527161,324.68808,414.527679,326.531891,414.381714,328.318512C413.90625,334.137787,412.678864,336.705383,408.904541,339.776123C407.644257,340.801514,404.788147,341.858093,401.535645,342.502136C398.221985,343.158325,393.901123,343.081818,388.519257,342.271729z"/>
    <path transform="matrix(-1,0,0,1,0,0)" style="stroke:none;fill:#0A2547;fill-rule:evenodd" d="M526.011902,342.693726C520.579651,341.675903,518.518555,340.906342,516.619263,339.186768C512.74115,335.675537,512.639771,328.937653,516.408936,325.21524C517.190918,324.443024,519.165894,323.312012,520.19397,323.047699C522.382446,322.485077,522.849976,322.387207,524.265991,322.195374C525.106201,322.081512,527.610474,321.901794,529.831177,321.796021C532.051758,321.690216,534.242126,321.490021,534.698669,321.351135C535.922852,320.978699,536.837036,320.075806,536.861328,319.215271C536.88623,318.333435,536.357178,317.712891,535.06897,317.112854C534.188965,316.703003,533.610535,316.648132,529.503784,316.585083C525.447998,316.522827,524.493896,316.579773,521.210571,317.080017C519.170044,317.3909,517.083069,317.705109,516.572937,317.778259L515.645386,317.911255L515.645386,314.179138C515.645386,309.567993,515.287476,309.900269,521.10144,309.113831C531.222595,307.744843,538.793457,308.738464,542.516357,311.924347C544.569458,313.681244,545.544556,316.076965,545.544556,319.364166C545.544556,320.867188,545.42926,321.774628,545.136353,322.575928C543.401794,327.321472,539.098389,329.234619,528.756592,329.857819C522.916077,330.209778,522.323608,330.442261,522.323608,332.382507C522.323608,334.201843,523.960938,334.63797,530.832275,334.648895C534.091553,334.654083,536.35321,334.548981,537.81604,334.324341C539.005859,334.141602,540.715942,333.879395,541.616211,333.741638C542.516479,333.603882,543.793213,333.483307,544.453369,333.473694L545.653687,333.456238L545.653687,337.251404L545.653687,341.046539L544.752319,341.312683C543.706177,341.621582,541.827148,341.905304,536.803955,342.512878C532.994873,342.973633,527.95636,343.058044,526.011902,342.693726z"/>
    <path transform="matrix(-1,0,0,1,0,0)" style="stroke:none;fill:#0A2547;fill-rule:evenodd" d="M217.580963,341.918945L216.871674,341.830902L216.871674,329.968384C216.871674,323.444,216.812073,317.9505,216.739212,317.76062C216.622971,317.457733,215.889526,317.415436,210.753143,317.415436C205.685699,317.415436,204.852783,317.368652,204.551392,317.067291C204.255432,316.771332,204.212219,316.17453,204.263,313.084351L204.322754,309.449585L221.01828,309.449585L237.713821,309.449585L237.773712,313.252655C237.819305,316.149109,237.767273,317.097809,237.555466,317.232239C237.402496,317.329315,234.707382,317.410248,231.56633,317.412079C228.425262,317.41391,225.699982,317.475037,225.510101,317.547913C225.201111,317.666473,225.164886,318.936829,225.164886,329.652649C225.164886,341.265961,225.152222,341.631744,224.742752,341.850891C224.342911,342.06488,219.154251,342.114166,217.580963,341.918945z"/>
    <path transform="matrix(-1,0,0,1,0,0)" style="stroke:none;fill:#0A2547;fill-rule:evenodd" d="M271.004425,341.759857C270.872894,341.601379,270.761566,339.184631,270.726654,335.729858L270.668396,329.964355L262.229462,329.855225C257.588043,329.795227,253.743179,329.697021,253.685303,329.636993C253.627441,329.576965,253.545715,327.809204,253.503693,325.708618L253.427277,321.889404L261.82959,321.833923C269.419128,321.783783,270.258301,321.742798,270.50473,321.410278C270.671204,321.185577,270.777527,320.339874,270.777527,319.240051L270.777527,317.437988L259.8573,317.372131C250.436707,317.315338,248.908722,317.261353,248.730301,316.978943C248.448364,316.532654,248.459137,310.292542,248.742737,309.762604C248.962769,309.351471,249.36351,309.340454,264.105469,309.340454C277.70694,309.340454,279.255737,309.375488,279.374756,309.685669C279.447632,309.875549,279.507202,317.146088,279.507202,325.842468C279.507202,338.300537,279.449341,341.67218,279.234436,341.739655C279.084381,341.786743,277.220642,341.870056,275.092773,341.924805C272.225189,341.998596,271.167114,341.955902,271.004425,341.759857z"/>
    <path transform="matrix(-1,0,0,1,0,0)" style="stroke:none;fill:#0A2547;fill-rule:evenodd" d="M365.276428,341.871338L363.203125,341.749451L363.14447,336.915314C363.097168,333.017395,363.026733,332.058533,362.780823,331.964172C362.613098,331.899811,361.853851,331.932922,361.093567,332.037781C360.333313,332.142609,358.199158,332.298096,356.351074,332.383301C353.676086,332.506592,352.929016,332.609558,352.687683,332.888092C352.520935,333.080536,351.346619,334.809326,350.078125,336.729858C348.809631,338.650391,347.43576,340.565491,347.025146,340.985596L346.278564,341.749451L342.663208,341.721893C338.442749,341.689728,338.181335,341.590149,338.607483,340.176575C338.846985,339.382172,339.890076,337.558533,341.702423,334.765686C343.135376,332.557526,344.106934,330.932007,344.106934,330.742737C344.106934,330.643555,343.572021,330.158539,342.918243,329.664917C341.12561,328.311493,340.618286,327.72699,339.875488,326.159485C339.200378,324.734741,339.196106,324.70285,339.128296,320.591766C339.06546,316.78479,339.097992,316.352234,339.538544,315.135712C340.291473,313.05661,341.293701,311.815369,343.124878,310.694214C346.366608,308.709381,350.766785,308.237671,360.922974,308.786285C364.697754,308.990204,368.621033,309.222839,369.641296,309.303314L371.496338,309.449585L371.552307,325.466309C371.593079,337.117065,371.541168,341.563965,371.361938,341.779938C371.102295,342.092773,369.461578,342.117432,365.276428,341.871338zM362.53421,323.968079L363.094025,323.755249L363.094025,320.390442C363.094025,317.399811,363.051575,317.005676,362.712097,316.845978C362.502045,316.747131,359.610046,316.631531,356.285461,316.589081C350.643188,316.516968,350.175842,316.540558,349.265564,316.943237C347.8367,317.575287,347.490173,318.236725,347.507416,320.299286C347.521027,321.929382,347.554688,322.041321,348.24588,322.754456C349.597534,324.148987,349.717041,324.170471,356.150635,324.175964C359.419922,324.178772,362.219971,324.087585,362.53421,323.968079z"/>
    <path transform="matrix(-1,0,0,1,0,0)" style="stroke:none;fill:#0A2547;fill-rule:evenodd" d="M429.158508,341.872375C425.6716,341.739563,425.381165,341.630493,425.635101,340.549103C425.858429,339.598053,426.425934,338.566345,428.696259,334.983948C429.913361,333.063416,430.972992,331.286835,431.050995,331.036011C431.166565,330.664307,430.946136,330.386169,429.858582,329.531799C427.418427,327.614655,426.485901,325.744293,426.163116,322.119568C425.929138,319.491882,426.220856,316.340942,426.855072,314.645874C427.899963,311.853058,430.958923,309.697632,434.895752,308.980194C438.090088,308.39801,449.863525,308.570587,457.156464,309.306458L458.575043,309.449585L458.745422,310.649902C458.918976,311.872375,458.724274,341.396118,458.54071,341.694885C458.485413,341.784912,456.644562,341.858582,454.449921,341.858582L450.459717,341.858582L450.309784,337.011566C450.157104,332.07666,450.073669,331.658264,449.299744,331.945496C449.11969,332.012329,446.974945,332.179565,444.533661,332.317169L440.09494,332.567322L437.477875,336.430176C434.303925,341.115143,433.499969,342.091064,432.860016,342.036041C432.599274,342.013641,430.933594,341.939972,429.158508,341.872375zM449.612885,323.968079L450.172699,323.755249L450.172699,320.50293C450.172699,317.745605,450.117859,317.205048,449.812225,316.951111C449.532013,316.718262,448.177612,316.635895,443.728973,316.581177C437.315796,316.502319,436.528595,316.611877,435.399963,317.740509C434.727417,318.413086,434.67749,318.562988,434.67749,319.9104C434.67749,320.706482,434.813721,321.683777,434.980164,322.082214C435.304382,322.858154,436.290161,323.675629,437.250885,323.96521C438.100525,324.221344,448.940155,324.223877,449.612885,323.968079z"/>
    <path transform="matrix(-1,0,0,1,0,0)" style="stroke:none;fill:#0A2547;fill-rule:evenodd" d="M471.073395,341.825806C470.745758,341.570374,470.690155,341.058594,470.655304,337.977325C470.628906,335.644104,470.697083,334.341431,470.85379,334.184692C471.017029,334.021484,474.511078,333.910217,481.902649,333.832947L492.712769,333.719849L492.846375,332.824219C492.919891,332.331604,492.948273,331.486603,492.909546,330.946442L492.839081,329.964355L484.218506,329.855225L475.597931,329.746124L475.597931,325.817749L475.597931,321.889404L484.10733,321.780273L492.61673,321.671143L492.756653,321.016418C492.944641,320.136719,492.97998,318.18869,492.815735,317.76062C492.697479,317.452515,491.554169,317.4151,482.176422,317.412445C476.397644,317.410797,471.448608,317.35025,471.178528,317.277863C470.693329,317.147827,470.687469,317.10144,470.687469,313.375854C470.687469,310.139038,470.736328,309.58667,471.032684,309.472931C471.663757,309.230774,501.203949,309.321533,501.355103,309.566101C501.610565,309.979462,501.532471,341.436523,501.27536,341.693665C501.114227,341.854797,496.395721,341.958679,486.245911,342.024475C474.048889,342.103516,471.384979,342.068665,471.073395,341.825806z"/>
    <path transform="matrix(-1,0,0,1,0,0)" style="stroke:none;fill:#0A2547;fill-rule:evenodd" d="M605.124756,341.88739L604.579102,341.730164L604.525024,338.138824C604.495239,336.163574,604.558716,334.410858,604.666016,334.243896C604.826721,333.993866,606.765808,333.921082,615.665771,333.830963L626.470337,333.721558L626.600464,333.070557C626.672119,332.712524,626.730713,327.337036,626.730713,321.125C626.730713,311.784729,626.782898,309.787109,627.032104,309.580292C627.240051,309.407684,628.541931,309.348694,631.233276,309.389893L635.133057,309.449585L635.188965,325.625305L635.244934,341.800995L634.534302,341.915619C633.439453,342.092163,605.743164,342.065582,605.124756,341.88739z"/>
    <path transform="matrix(-1,0,0,1,0,0)" style="stroke:none;fill:#0A2547;fill-rule:evenodd" d="M291.183167,341.700653C289.854919,341.374146,289.921967,340.688141,291.628967,337.137939C292.833862,334.631989,293.641907,332.900452,294.671143,330.61908C294.941895,330.018921,295.607605,328.594879,296.150452,327.45459C299.524231,320.36795,301.531494,316.111084,302.582275,313.814423C303.241302,312.374023,304.119934,310.778137,304.53479,310.268005L305.289063,309.340454L309.082581,309.340454L312.876099,309.340454L313.413239,310.049744C313.708679,310.43985,314.242371,311.3974,314.599243,312.177612C314.956116,312.957825,315.762878,314.676483,316.39209,315.996857C317.021301,317.3172,317.904694,319.183197,318.355225,320.143463C318.805786,321.103729,319.764343,323.117004,320.485352,324.617432C322.168701,328.120544,323.344177,330.62915,324.831451,333.892731C325.487885,335.33313,326.302185,337.100891,326.641052,337.821075C326.979919,338.54126,327.382324,339.552155,327.535339,340.067474C327.987274,341.589752,327.707275,341.72757,323.969177,341.822815C321.035583,341.897552,320.830505,341.875366,320.25531,341.421082C319.601715,340.904907,318.362244,338.628113,317.906799,337.106903C317.718018,336.476471,317.480225,336.138733,317.172577,336.063995C316.922302,336.003235,313.132904,335.980865,308.751709,336.014313L300.785828,336.075134L299.476379,338.612732C298.756195,340.008392,298.032166,341.309662,297.867432,341.504456C297.616028,341.801636,297.089752,341.854492,294.593781,341.833252C292.958008,341.819336,291.423248,341.759644,291.183167,341.700653zM313.617249,328.203979C313.59259,327.955994,313.234619,327.02301,312.821777,326.130676C312.025574,324.409821,310.97345,321.955322,310.489197,320.689056C310.033752,319.498199,309.19162,318.251404,308.903625,318.341675C308.625916,318.428741,308.306091,319.000916,307.464478,320.916443C307.176636,321.571594,306.475403,323.138824,305.906189,324.39917C304.232178,328.105835,304.180664,328.252319,304.455505,328.52713C304.625305,328.69696,306.081665,328.754456,309.181549,328.713745C313.562012,328.656219,313.661133,328.644836,313.617249,328.203979z"/>
    <path transform="matrix(-1,0,0,1,0,0)" style="stroke:none;fill:#0A2547;fill-rule:evenodd" d="M557.056885,341.70813C556.12384,341.464294,556.72345,339.466675,559.380859,333.96582C560.173218,332.325531,560.821533,330.936157,560.821533,330.878296C560.821533,330.820435,561.449097,329.461731,562.216125,327.858948C563.898071,324.344269,565.137146,321.718018,567.297729,317.088074C569.865234,311.585938,570.636353,310.06839,571.058472,309.686371C571.397583,309.379456,572.005249,309.338593,575.466553,309.389984L579.481262,309.449585L580.79071,312.075653C581.510925,313.519989,582.532104,315.6315,583.060059,316.767853C583.588013,317.904236,584.50647,319.865204,585.101135,321.125549C585.695801,322.385895,586.455505,324.006348,586.789368,324.726532C588.145264,327.65155,589.103333,329.677185,590.505371,332.583252C593.217468,338.20459,593.776123,339.599915,593.776123,340.752075C593.776123,341.318115,593.663086,341.636993,593.430908,341.726074C593.241089,341.79895,591.674194,341.858582,589.948975,341.858582C586.168335,341.858582,586.270264,341.922729,584.857544,338.652802C584.167358,337.055267,583.759949,336.383606,583.374634,336.208069C583.016724,336.044983,580.246704,335.966003,574.882507,335.966003L566.921509,335.966003L566.720093,336.495941C566.317871,337.553711,564.487793,341.104279,564.152832,341.476624C563.853271,341.809662,563.401367,341.855316,560.624023,341.833252C558.872192,341.819336,557.266968,341.763,557.056885,341.70813zM579.808594,328.354187C579.808594,327.952393,579.509766,327.141632,578.706177,325.363678C578.484863,324.873871,578.104004,323.966309,577.859802,323.346863C577.227173,321.741882,575.907959,319.105408,575.561523,318.753601C575.39978,318.589355,575.14856,318.528442,575.003296,318.618256C574.770752,318.761932,572.82489,322.65332,572.82489,322.974548C572.82489,323.042786,572.445313,323.90686,571.981506,324.894684C570.963257,327.063019,570.564453,328.243042,570.748901,328.541504C570.835083,328.680969,572.55188,328.764038,575.347534,328.764038C579.566406,328.764038,579.808594,328.74176,579.808594,328.354187z"/>
    <path transform="matrix(-1,0,0,1,0,0)" style="stroke:none;fill:#0A2547;fill-rule:evenodd" d="M659.620239,340.161255C659.090271,339.575714,658.220764,337.558533,657.811829,335.966003C657.326172,334.075104,657.48645,330.914001,658.158264,329.13089C658.421387,328.432434,658.602539,327.830261,658.560852,327.792755C658.519165,327.755249,657.846619,327.407684,657.066406,327.020416C656.286194,326.633148,654.935791,325.784393,654.065552,325.134277L652.483276,323.952301L652.490234,321.284027L652.497192,318.615753L652.960327,319.270477C653.215149,319.630585,654.108826,320.589081,654.946411,321.400452C656.647705,323.048584,659.239441,324.491241,661.931519,325.288574C662.796631,325.5448,663.539734,325.787506,663.582642,325.827881C663.625671,325.868256,663.306213,326.485077,662.872742,327.198608C661.036804,330.220886,660.568848,332.099335,660.991943,334.747925C661.249146,336.358002,661.931763,337.890991,663.113586,339.512451L663.86908,340.549103L661.920166,340.549103C660.329834,340.549103,659.906616,340.477722,659.620239,340.161255z"/>
    <path transform="matrix(-1,0,0,1,0,0)" style="stroke:none;fill:#0A2547;fill-rule:evenodd" d="M675.726135,340.226563C672.973083,339.716248,670.124756,338.364319,667.709839,336.42157C664.471497,333.816498,663.873718,332.710144,665.062012,331.52182C665.931091,330.65271,666.466614,330.783936,668.131775,332.274109C670.101746,334.037079,671.172546,334.764404,673.060974,335.622101C675.328064,336.651794,676.716858,336.936096,679.436218,336.927063C681.474243,336.920319,682.131592,336.823822,683.78772,336.2883C685.899414,335.605408,688.29126,334.180145,689.986633,332.594299C691.391479,331.280182,692.006409,331.152374,692.852661,331.998596C693.939514,333.085419,693.674561,333.785736,691.439575,335.73407C686.900208,339.691223,681.369263,341.272522,675.726135,340.226563z"/>
    <path transform="matrix(-1,0,0,1,0,0)" style="stroke:none;fill:#0A2547;fill-rule:evenodd" d="M694.604065,340.379547C694.604065,340.286316,694.990234,339.696106,695.462158,339.068024C696.63208,337.510956,697.275269,335.756958,697.394348,333.798523C697.528564,331.591095,697.182251,330.255585,695.892212,328.005798C695.290222,326.955933,694.839722,326.054993,694.89093,326.003723C694.942261,325.952423,695.903992,325.664307,697.028198,325.363464C700.411987,324.457916,702.03125,323.546692,704.318909,321.260651C705.857483,319.723206,706.511902,318.873291,707.195679,317.524536C708.735962,314.486511,708.900696,313.773438,708.884949,310.21344C708.872314,307.378021,708.811707,306.883057,708.302185,305.454163C706.36676,300.02652,702.413818,296.44574,696.916565,295.140411C694.681396,294.60968,691.802124,294.653931,689.584534,295.253113C686.431396,296.105042,683.259033,298.285278,680.945129,301.190613C680.290955,302.012024,679.672913,302.71225,679.571777,302.746704C679.470642,302.781128,679.232727,302.57251,679.043091,302.283081C678.161255,300.937225,675.869019,298.536987,674.602295,297.633087C672.065308,295.822723,668.577148,294.718231,665.39679,294.718231C663.68396,294.718231,660.25061,295.515167,658.78949,296.251892C656.630005,297.34079,654.058533,299.520935,652.876099,301.265503C652.518066,301.793549,652.505859,301.729401,652.494751,299.272156L652.483276,296.733185L653.368713,295.933289C657.479736,292.219238,664.313782,290.5513,669.942688,291.888245C672.452087,292.484253,675.372559,293.971497,677.647644,295.811951C678.68457,296.650787,679.595703,297.337128,679.672302,297.337128C679.74884,297.337128,680.331665,296.861786,680.967346,296.280792C687.808838,290.028015,698.2323,289.784912,705.517151,295.708252C708.679138,298.279266,710.773743,301.675446,711.973022,306.175964C712.48645,308.102448,712.433105,312.204559,711.863098,314.627655C711.325806,316.911621,709.728699,320.248871,708.35968,321.948242C706.743103,323.954834,704.199768,325.999023,701.899292,327.140747C700.755493,327.708405,699.860413,328.281311,699.910278,328.413879C700.995178,331.298218,701.109314,334.451202,700.220947,336.997925C699.918335,337.86554,699.410461,339.019501,699.092407,339.562256L698.514038,340.549103L696.559021,340.549103C695.483826,340.549103,694.604065,340.472809,694.604065,340.379547z"/>
    <path transform="matrix(-1,0,0,1,0,0)" style="stroke:none;fill:#0A2547;fill-rule:evenodd" d="M708.353333,340.415741C708.353333,340.342407,709.028381,339.43396,709.853394,338.397003C714.307678,332.798462,717.808838,325.309906,719.695313,317.346161C720.332947,314.654205,720.677246,312.146301,720.899109,308.576599C720.966309,307.496307,721.075256,305.914429,721.141113,305.06131L721.261047,303.510162L723.264099,303.382782C725.586792,303.235077,727.374695,302.681274,729.344604,301.499329C731.773499,300.041992,734.064636,296.821045,734.860596,293.744843C736.365967,287.926788,732.382996,281.168365,726.358337,279.31781C724.369873,278.707001,720.908752,278.749725,718.989136,279.408752C715.971985,280.444519,713.679993,282.483978,711.934631,285.685883C711.387634,286.689331,710.864441,287.557129,710.771851,287.614319C710.679321,287.671509,709.903198,286.843597,709.047119,285.774475C705.689453,281.581055,700.242981,278.125977,692.639893,275.366302C688.823608,273.98111,684.167175,271.253662,681.570068,268.882263C680.928284,268.296265,680.3479,267.872101,680.280334,267.939667C680.082642,268.13736,680.585388,270.164856,681.267944,271.922791C681.777344,273.234558,681.835999,273.548737,681.571472,273.548737C681.391113,273.548737,680.241272,273.307251,679.016296,273.012115C675.129578,272.075714,672.142151,270.442627,669.195435,267.643585L667.542053,266.072998L667.542053,266.927856C667.542053,268.121185,668.082458,270.076538,668.979858,272.130157C669.399475,273.090424,669.763245,273.960815,669.788208,274.064392C669.813171,274.167969,668.99884,274.479523,667.978516,274.756714C663.221252,276.049225,657.685181,278.707031,654.103516,281.41803C653.319702,282.011292,652.634521,282.496643,652.580872,282.496643C652.527222,282.496643,652.483276,281.583099,652.483276,280.466522L652.483276,278.436401L654.392944,277.216003C656.790771,275.683624,659.783691,274.17453,662.740723,273.006989C665.309814,271.992584,665.229675,272.124512,664.599365,269.947723C664.101135,268.227173,663.92572,264.028961,664.255493,261.718933C664.559937,259.587067,665.3078,256.904541,665.555237,257.057434C665.650635,257.116394,666.406738,258.31488,667.235535,259.720673C668.9151,262.569733,671.171692,265.149506,673.308289,266.663177C674.511841,267.515808,676.294189,268.529144,676.590393,268.529144C676.655212,268.529144,676.708191,267.859711,676.708191,267.041534C676.708191,266.223358,676.81366,264.971191,676.942505,264.258942C677.241333,262.606995,678.438171,258.708252,678.646423,258.708252C678.733521,258.708252,679.121643,259.483154,679.50885,260.430298C680.943848,263.940002,682.876343,266.13327,686.751526,268.650299C689.516296,270.446136,691.123474,271.23642,694.093262,272.260437C699.954346,274.281433,705.852112,277.612274,709.062622,280.714691L710.099304,281.716431L711.463318,280.281464C715.418091,276.120972,720.950195,274.447571,726.467468,275.742859C730.769592,276.752869,734.553955,279.693115,736.625305,283.634949C737.868225,286.000122,738.268921,287.516479,738.400696,290.353394C738.499268,292.473389,738.444031,293.1474,738.045349,294.69342C736.841614,299.360962,733.890564,303.007507,729.631958,305.0896C728.532104,305.627319,727.010254,306.17334,726.173584,306.330383C725.29834,306.494659,724.608643,306.746796,724.508667,306.939026C724.414795,307.119507,724.285645,308.592987,724.221619,310.21344C724.049255,314.57901,722.815125,320.011353,720.651855,325.92688C719.107727,330.149231,715.581299,336.603729,713.110107,339.730713L712.463318,340.549103L710.408325,340.549103C709.278137,340.549103,708.353333,340.489105,708.353333,340.415741z"/>
    <path transform="matrix(-1,0,0,1,0,0)" style="stroke:none;fill:#0A2547;fill-rule:evenodd" d="M678.023193,329.424316C677.786194,329.187286,677.54071,328.745361,677.4776,328.4422C677.41449,328.139069,677.309875,327.637146,677.244995,327.326843C677.088867,326.579834,676.182251,325.765015,675.205444,325.493683C674.771606,325.373169,673.621643,325.274048,672.650024,325.273376C671.24176,325.2724,670.815308,325.194672,670.547913,324.890228C669.678528,323.900146,669.932861,322.45459,671.058472,321.988342C671.480591,321.813507,672.426941,321.75769,673.822388,321.825348C676.09198,321.935364,677.421997,322.365356,678.84137,323.447937L679.579895,324.011261L680.162781,323.465393C681.590454,322.128418,684.53833,321.41449,687.164795,321.769653C689.121948,322.034302,689.757324,323.387024,688.510071,324.634216C687.896057,325.24826,687.795776,325.272156,685.833191,325.272156C684.277283,325.272156,683.614136,325.367004,683.033813,325.672577C682.172729,326.126038,681.510376,327.239685,681.509888,328.234924C681.509399,329.241425,680.739197,329.855225,679.476746,329.855225C678.749573,329.855225,678.329712,329.730774,678.023193,329.424316z"/>
    <path transform="matrix(-1,0,0,1,0,0)" style="stroke:none;fill:#0A2547;fill-rule:evenodd" d="M662.292297,316.880615C659.816284,315.968445,657.931641,314.281738,656.749512,311.920044C656.033936,310.490387,655.364502,307.616394,655.642456,307.166718C655.807983,306.898895,674.439026,306.841064,674.603882,307.10788C674.661011,307.200317,674.559082,308.010529,674.377319,308.908386C673.645142,312.52475,671.752625,315.063324,668.756775,316.44751C667.262329,317.13797,666.973572,317.195984,665.101074,317.181824C663.98291,317.17334,662.718994,317.037811,662.292297,316.880615zM667.743042,313.168427C668.701843,312.682587,670.379211,311.055054,670.379211,310.610626C670.379211,310.512207,669.723206,310.431671,668.92157,310.431671C667.53949,310.431671,667.428284,310.470551,666.776672,311.181946C666.398743,311.594574,665.825134,311.998535,665.502075,312.07962C664.723328,312.275085,663.708801,311.832977,663.156677,311.057587C662.745117,310.479614,662.603516,310.431671,661.307251,310.431671C660.535217,310.431671,659.903564,310.512207,659.903564,310.610626C659.903564,311.070374,661.548523,312.633484,662.565857,313.140442C664.133118,313.921448,666.234619,313.932831,667.743042,313.168427z"/>
    <path transform="matrix(-1,0,0,1,0,0)" style="stroke:none;fill:#0A2547;fill-rule:evenodd" d="M691.525146,316.68338C689.056885,315.667999,687.487,314.283325,686.422424,312.182404C685.803406,310.960815,685.082458,307.830322,685.293518,307.280365C685.409119,306.979065,686.507263,306.939789,694.81543,306.939789L704.206726,306.939789L704.206726,307.47113C704.206726,308.366425,703.575439,311.062744,703.1922,311.804169C702.007935,314.095398,700.243164,315.719727,697.882996,316.690796C696.168152,317.396332,693.250061,317.392914,691.525146,316.68338zM696.89563,313.358032C697.893677,312.935547,698.963989,312.068024,699.548767,311.207306L700.075867,310.431671L698.426514,310.431671C696.910095,310.431671,696.758423,310.472748,696.544983,310.941223C696.255737,311.576019,695.266052,312.177612,694.510986,312.177612C694.147705,312.177612,693.594666,311.85965,692.992493,311.304626C692.101196,310.483032,691.96637,310.431671,690.700256,310.431671L689.355103,310.431671L689.67688,311.054016C690.062744,311.800293,691.37439,312.988586,692.173096,313.315613C693.591553,313.896362,695.581543,313.914246,696.89563,313.358032z"/>
    <path transform="matrix(-1,0,0,1,0,0)" style="stroke:none;fill:#0A2547;fill-rule:evenodd" d="M574.46167,305.770386C573.447998,305.3013,568.02356,300.408051,568.02356,299.962738C568.02356,299.748383,568.146301,299.471985,568.296387,299.348541C568.743774,298.980438,571.222412,298.58139,572.304199,298.703308C573.848755,298.877411,574.093262,299.1138,576.871155,303.117645C577.659668,304.254211,577.83252,305.187439,577.331421,305.603333C576.844482,306.007446,575.182983,306.104156,574.46167,305.770386z"/>
    <path transform="matrix(-1,0,0,1,0,0)" style="stroke:none;fill:#0A2547;fill-rule:evenodd" d="M692.427307,305.059479C691.042969,304.756927,688.759155,303.725464,688.002258,303.060883C687.508911,302.627716,687.509827,301.450348,688.003967,300.840088C688.523987,300.197876,689.426331,300.221558,690.917053,300.916565C693.495667,302.118713,696.003113,302.183258,698.983765,301.124207C700.871765,300.453369,701.093506,300.485291,701.881897,301.54126C702.858337,302.849091,701.217896,304.205719,697.726685,304.977631C695.49823,305.470337,694.385864,305.487518,692.427307,305.059479z"/>
    <path transform="matrix(-1,0,0,1,0,0)" style="stroke:none;fill:#0A2547;fill-rule:evenodd" d="M670.043884,303.981079C667.724731,302.626801,664.804382,302.451294,661.754639,303.482971C659.803467,304.143005,659.69165,304.156982,659.158325,303.807556C658.53479,303.399017,658.261719,302.622894,658.461487,301.827087C658.62207,301.187256,660.220581,300.354431,662.304199,299.825012C663.975647,299.40033,667.670532,299.510193,669.313843,300.033447C670.631836,300.453094,672.036011,301.176392,672.570679,301.711029C673.18866,302.328979,673.121521,303.354401,672.420654,304.003937C671.71637,304.656677,671.1922,304.651611,670.043884,303.981079z"/>
    <path transform="matrix(-1,0,0,1,0,0)" style="stroke:none;fill:#0A2547;fill-rule:evenodd" d="M721.406616,297.021027C719.610962,296.518097,718.210754,295.369629,717.317444,293.667053C716.611267,292.321259,716.688782,289.451843,717.465332,288.194031C718.73291,286.140686,720.495056,285.11557,722.75708,285.11557C725.227112,285.11557,726.953857,286.11261,728.115417,288.209473C728.679016,289.226959,728.758545,289.588196,728.755249,291.117218C728.750793,293.163513,728.359131,294.078552,726.867371,295.527588C725.403809,296.949341,723.251831,297.537872,721.406616,297.021027zM724.224792,293.414642C726.304565,292.146545,725.70636,288.847321,723.332092,288.491272C721.484558,288.214233,720.138428,289.321045,720.138428,291.117218C720.138428,293.294769,722.366699,294.547546,724.224792,293.414642z"/>
    <path transform="matrix(-1,0,0,1,0,0)" style="stroke:none;fill:#0A2547;fill-rule:evenodd" d="M276.124451,294.296692L275.469727,294.168335L275.469727,288.059692L275.469727,281.95105L276.758942,281.884583C277.642609,281.83902,278.10498,281.907654,278.22876,282.102814C278.328064,282.259399,278.410828,283.934326,278.412659,285.82486C278.415344,288.560516,278.476044,289.262177,278.710144,289.262177C279.078979,289.262177,280.882446,287.415924,282.334229,285.552063C282.941956,284.77182,283.888916,283.617889,284.438568,282.987701L285.437927,281.841919L286.814087,281.841919C287.867615,281.841919,288.221283,281.922852,288.322693,282.187134C288.395569,282.377014,288.455139,285.175964,288.455139,288.407043L288.455139,294.281738L287.065125,294.281738L285.67511,294.281738L285.539856,293.463318C285.465454,293.013214,285.403503,291.389679,285.402161,289.855469C285.400146,287.523102,285.343628,287.044495,285.057007,286.934509C284.616089,286.76532,283.432922,287.907135,281.401184,290.462494C280.542267,291.542786,279.733459,292.538635,279.603882,292.675446C279.474274,292.812256,279.124756,293.213593,278.827148,293.567261C278.247131,294.256592,277.267944,294.520874,276.124451,294.296692z"/>
    <path transform="matrix(-1,0,0,1,0,0)" style="stroke:none;fill:#0A2547;fill-rule:evenodd" d="M389.77417,294.338257L384.48175,294.273987L384.48175,292.993866C384.48175,291.85083,384.534363,291.699646,384.972839,291.582153C385.24292,291.509766,387.098358,291.449219,389.096069,291.447571C392.78244,291.44455,393.007935,291.395935,392.989899,290.608337C392.974243,289.925507,392.507813,289.80545,389.455322,289.698669L386.336853,289.589539L386.272034,288.477722L386.207245,287.365936L389.291595,287.234009C391.139679,287.154968,392.499634,286.999451,392.68457,286.845947C393.074371,286.522461,393.088165,285.029572,392.704285,284.710999C392.524536,284.561829,390.937256,284.448639,388.503143,284.411469L384.590881,284.351715L384.52533,283.09317L384.459778,281.834656L390.199646,281.892853L395.939514,281.95105L395.997803,287.471222C396.057129,293.082123,395.940857,294.385315,395.380127,294.396362C395.207642,294.39978,392.684937,294.373627,389.77417,294.338257z"/>
    <path transform="matrix(-1,0,0,1,0,0)" style="stroke:none;fill:#0A2547;fill-rule:evenodd" d="M472.006348,294.336487C469.473572,294.289948,468.364716,294.191742,468.244995,294.003326C468.151642,293.856354,468.07373,293.282501,468.071899,292.728027C468.068604,291.731873,468.078278,291.718353,468.886993,291.584656C469.337097,291.510254,471.183441,291.448303,472.98996,291.446991C475.250732,291.445343,476.35611,291.362976,476.536377,291.182709C476.72229,290.996765,476.798279,289.677063,476.798279,286.633423C476.798279,282.75708,476.836517,282.311432,477.197388,281.984863C477.647003,281.577942,478.462006,281.520264,479.293854,281.836517L479.853668,282.049377L479.853668,288.142212C479.853668,293.496765,479.811829,294.251099,479.508453,294.367523C479.318573,294.440369,478.361053,294.478027,477.380585,294.451233C476.400116,294.424408,473.98172,294.372772,472.006348,294.336487z"/>
    <path transform="matrix(-1,0,0,1,0,0)" style="stroke:none;fill:#0A2547;fill-rule:evenodd" d="M267.377502,293.740387C267.026154,293.204193,267.03067,292.654114,267.403595,290.559479C267.573334,289.60614,267.363342,289.412628,265.757965,289.042877C263.151611,288.442596,262.047852,287.345032,262.047852,285.353607C262.047852,284.038574,262.707062,282.987488,263.905762,282.391235C264.585938,282.052948,265.339417,281.940613,267.357574,281.876709C270.167633,281.787689,271.742828,282.071838,272.095795,282.731384C272.398773,283.297455,272.356384,284.45932,272.03241,284.468994C271.882385,284.47348,270.346436,284.498047,268.619202,284.52356C265.897095,284.563782,265.446655,284.620819,265.237579,284.951874C264.829285,285.598297,265.337524,286.077393,266.629181,286.263733C267.970856,286.457275,269.328979,287.156189,269.647278,287.816864C269.974091,288.49527,270.175537,293.338898,269.898499,293.856598C269.725403,294.179993,269.438995,294.281738,268.701569,294.281738C267.910431,294.281738,267.666992,294.18222,267.377502,293.740387z"/>
    <path transform="matrix(-1,0,0,1,0,0)" style="stroke:none;fill:#0A2547;fill-rule:evenodd" d="M291.292297,292.863159L291.292297,291.44458L295.533325,291.44458C299.475525,291.44458,299.783417,291.416016,299.903137,291.038849C300.205505,290.08609,299.938812,289.985016,296.686768,289.819946C294.985474,289.733582,293.517639,289.616058,293.424988,289.558777C293.332306,289.501526,293.25647,288.969391,293.25647,288.376312L293.25647,287.297974L294.184021,287.270233C294.694153,287.254944,296.191833,287.181305,297.512207,287.106537L299.912872,286.970612L299.912872,285.770294L299.912872,284.569946L295.657166,284.460846L291.401428,284.351715L291.335968,283.096832L291.270508,281.841919L297.064819,281.841919L302.859131,281.841919L302.859131,288.061829L302.859131,294.281738L297.075745,294.281738L291.292297,294.281738L291.292297,292.863159z"/>
    <path transform="matrix(-1,0,0,1,0,0)" style="stroke:none;fill:#0A2547;fill-rule:evenodd" d="M306.465576,292.917725C306.389435,292.167511,306.357056,289.393127,306.393646,286.75238L306.460144,281.95105L307.933289,281.886536L309.406433,281.821991L309.405426,285.596649C309.404907,287.672699,309.340759,290.476135,309.262939,291.826508L309.12146,294.281738L307.862732,294.281738L306.604004,294.281738L306.465576,292.917725z"/>
    <path transform="matrix(-1,0,0,1,0,0)" style="stroke:none;fill:#0A2547;fill-rule:evenodd" d="M314.39447,293.830597C312.363159,292.799927,311.834595,290.401154,313.346436,289.074524C314.129395,288.387482,314.146759,288.103241,313.451569,287.353516C312.424438,286.245789,312.452423,284.091461,313.506927,283.09314C314.595581,282.062531,316.17392,281.791992,320.608643,281.875977C322.789734,281.917267,324.697021,282.030518,324.847046,282.127625C325.230957,282.376068,325.241272,293.636536,324.857971,294.019836C324.668945,294.208893,323.28772,294.275116,319.892944,294.257965C315.779968,294.237152,315.090027,294.183533,314.39447,293.830597zM322.064453,291.02594C322.064453,289.934784,322.007813,289.916901,318.553406,289.916901L315.307251,289.916901L315.173462,290.450104C315.099854,290.743347,315.10376,291.087097,315.18219,291.213928C315.272339,291.359863,316.562622,291.44458,318.69458,291.44458C321.871094,291.44458,322.064453,291.420563,322.064453,291.02594zM322.023254,286.891602C322.212616,286.771484,322.286438,286.348358,322.241455,285.640045L322.173584,284.569946L318.899963,284.569946L315.626343,284.569946L315.556946,285.544128C315.45575,286.964905,315.715027,287.080414,318.996216,287.076416C320.503723,287.074554,321.865845,286.991394,322.023254,286.891602z"/>
    <path transform="matrix(-1,0,0,1,0,0)" style="stroke:none;fill:#0A2547;fill-rule:evenodd" d="M335.941895,293.838226C334.763306,293.250122,334.290558,292.789001,333.823547,291.771942C333.102722,290.20224,333.40741,289.212769,334.952637,288.105164C335.704834,287.565979,336.09613,287.469727,338.264893,287.290314C339.617493,287.178406,340.975494,287.085266,341.282654,287.083282C342.604492,287.07489,343.130096,285.653381,342.115479,284.830872C341.640778,284.446045,341.29422,284.417389,337.996155,284.490326L334.395142,284.569946L334.395142,283.493011L334.395142,282.416046L335.486389,282.133209C336.086548,281.977631,337.763153,281.84845,339.212158,281.84613C342.413208,281.841034,343.532593,282.158722,344.642639,283.38739C345.365479,284.187469,345.416382,284.339447,345.416382,285.69577C345.416382,286.916046,345.327576,287.26413,344.859497,287.877777C344.553223,288.279358,344.037628,288.744415,343.713745,288.911285C343.081482,289.23703,340.855957,289.626251,338.214417,289.873077C336.779846,290.007111,336.569519,290.082306,336.512482,290.481598C336.393982,291.311127,337.021118,291.553711,339.284271,291.553711C340.43634,291.553711,342.279785,291.477112,343.380859,291.383453C345.301849,291.220093,345.388733,291.231873,345.529449,291.675232C345.610107,291.929352,345.615173,292.461975,345.54071,292.858826C345.332642,293.967987,344.100952,294.283997,340.028442,294.273041C337.270447,294.265625,336.670441,294.201782,335.941895,293.838226z"/>
    <path transform="matrix(-1,0,0,1,0,0)" style="stroke:none;fill:#0A2547;fill-rule:evenodd" d="M352.260254,293.913605C351.202545,293.54715,349.683655,292.310913,349.242126,291.457153C348.830139,290.660431,348.596832,287.911682,348.788971,286.117615C348.932495,284.777435,349.018311,284.595306,349.962708,283.62735C351.266785,282.29068,352.724792,281.841919,355.763641,281.841919C359.331177,281.841919,361.348694,282.750763,362.318604,284.794678C363.176697,286.602997,362.910248,290.425934,361.824646,291.881073C360.993835,292.99469,360.92041,293.053558,359.561096,293.695496C358.417603,294.235535,358.116516,294.279572,355.741882,294.254211C354.137268,294.237091,352.822815,294.10849,352.260254,293.913605zM358.625488,291.100037C359.636047,290.620483,360.038635,289.757813,360.038635,288.071899C360.038635,286.30484,359.700439,285.592102,358.55719,284.949524C357.835876,284.544128,357.35318,284.460846,355.725281,284.460846C352.716553,284.460846,351.68927,285.045685,351.412659,286.916077C351.050171,289.367432,351.916962,291.074646,353.709595,291.440033C354.980896,291.699188,357.769287,291.506317,358.625488,291.100037z"/>
    <path transform="matrix(-1,0,0,1,0,0)" style="stroke:none;fill:#0A2547;fill-rule:evenodd" d="M366.149414,288.302856C366.149414,282.350342,366.153229,282.300507,366.63446,281.96344C367.627289,281.268005,369.425354,281.83905,370.062439,283.052094C370.378845,283.654663,371.814087,285.715057,372.364868,286.357422C372.487366,286.500305,372.833069,286.964081,373.133179,287.388062C373.433258,287.812042,373.795593,288.161652,373.938354,288.164948C374.081116,288.168243,374.759521,287.262512,375.445862,286.152222C377.288391,283.17157,378.275452,281.910522,378.848145,281.805634C379.125854,281.754761,379.81958,281.752014,380.389709,281.7995L381.426392,281.885895L381.426392,288.083801L381.426392,294.281738L380.140259,294.281738C379.168854,294.281738,378.821747,294.197266,378.72168,293.936523C378.648865,293.746674,378.589233,292.330658,378.589233,290.789856C378.589233,287.876892,378.502014,287.297974,378.06311,287.297974C377.734436,287.297974,376.695923,288.400818,375.742554,289.762329C375.339813,290.337494,374.694336,291.003326,374.308228,291.241974L373.606201,291.675842L373.067535,291.176636C372.77124,290.902069,371.92865,289.86795,371.195129,288.878571C370.461548,287.889221,369.715515,287.079742,369.537231,287.079742C369.07782,287.079742,368.99057,287.66037,368.930542,291.117218L368.877441,294.172607L367.513428,294.23761L366.149414,294.302551L366.149414,288.302856z"/>
    <path transform="matrix(-1,0,0,1,0,0)" style="stroke:none;fill:#0A2547;fill-rule:evenodd" d="M400.040955,293.939789C399.216125,293.578766,398.832581,292.960175,398.92688,292.143097L398.994873,291.553711L402.923248,291.431793C405.083862,291.364746,406.862793,291.291077,406.876495,291.268127C406.890198,291.245148,407.160248,290.852783,407.476654,290.39621C407.967133,289.688416,408.051941,289.336121,408.051941,288.005798C408.051941,286.047028,407.782013,285.453369,406.640015,284.900543C405.847839,284.517059,405.294006,284.460846,402.308746,284.460846L398.885742,284.460846L398.885742,283.614594C398.885742,283.14917,399.008545,282.669586,399.158569,282.548859C400.045837,281.835083,405.345215,281.588287,407.267029,282.171295C408.660217,282.593933,409.683685,283.391754,410.290375,284.528046C410.715363,285.324036,410.778564,285.769104,410.776489,287.952728C410.774261,290.283997,410.73114,290.5401,410.170013,291.553711C409.524139,292.720337,408.623383,293.430115,407.127411,293.951233C405.885132,294.384003,401.037872,294.37616,400.040955,293.939789z"/>
    <path transform="matrix(-1,0,0,1,0,0)" style="stroke:none;fill:#0A2547;fill-rule:evenodd" d="M412.985687,293.68158C413.06308,293.351501,413.493896,292.295746,413.943085,291.33548C414.392273,290.375214,415.001709,289.049377,415.297424,288.389191C415.59314,287.729004,416.21991,286.33136,416.690277,285.283295C417.160614,284.235199,417.840942,283.023956,418.202057,282.591614C418.789337,281.88855,418.969696,281.805542,419.910706,281.805542C421.292419,281.805542,421.576569,282.089813,422.875488,284.771637C424.304382,287.721863,425.511322,290.336273,425.511322,290.481262C425.511322,290.546356,425.762268,291.148163,426.068909,291.818634C426.37561,292.489105,426.682526,293.317596,426.750916,293.659698L426.875336,294.281738L425.651886,294.281738C424.5289,294.281738,424.417175,294.236938,424.291504,293.736145C424.216187,293.436066,424.073822,293.190521,423.975159,293.190521C423.876465,293.190521,423.764374,292.969574,423.726013,292.699493C423.65683,292.21228,423.627197,292.208435,419.954681,292.208435L416.253082,292.208435L415.917175,293.243988L415.581299,294.27951L414.213135,294.28064L412.844971,294.281738L412.985687,293.68158zM421.587891,289.04129C421.981842,288.830444,421.965668,288.738525,421.232666,287.022552C420.810272,286.033722,420.37674,285.135559,420.269226,285.026611C419.952393,284.705505,419.380707,285.338806,418.711426,286.75238C417.997955,288.259247,417.92627,288.968842,418.473022,289.111725C419.210358,289.304413,421.179443,289.259888,421.587891,289.04129z"/>
    <path transform="matrix(-1,0,0,1,0,0)" style="stroke:none;fill:#0A2547;fill-rule:evenodd" d="M429.709076,288.126892L429.767059,281.95105L431.131073,281.886078L432.495087,281.821106L432.495087,284.224487C432.495087,286.377319,432.539093,286.651459,432.917206,286.853821C433.547363,287.191071,439.409363,287.150513,439.621399,286.807434C439.713928,286.657654,439.779419,285.651001,439.766876,284.570435C439.736786,281.979401,439.821655,281.841919,441.450684,281.841919L442.752472,281.841919L442.752472,288.071808L442.752472,294.301697L441.279327,294.237152L439.806183,294.172607L439.783203,292.754059C439.770538,291.973816,439.746002,291.013855,439.728638,290.620789L439.697083,289.906067L436.150635,289.966064L432.604187,290.026001L432.495087,292.099304L432.385956,294.172607L431.018524,294.237671L429.651123,294.302734L429.709076,288.126892z"/>
    <path transform="matrix(-1,0,0,1,0,0)" style="stroke:none;fill:#0A2547;fill-rule:evenodd" d="M455.301392,294.078156C455.06134,293.972473,454.532684,293.761292,454.126648,293.608887C452.454407,292.981262,451.542816,291.710815,451.050049,289.321167C450.688141,287.566193,450.843933,286.284424,451.601044,284.788055C452.716095,282.584198,454.390839,281.841919,458.248413,281.841919C460.807953,281.841919,462.168762,282.17395,463.527496,283.129974C465.669739,284.637299,466.089142,289.215515,464.335602,291.951324C463.97345,292.516327,463.378937,292.982819,462.400543,293.469757C461.071533,294.131165,460.833374,294.175507,458.363037,294.221466C456.91922,294.248352,455.541473,294.183868,455.301392,294.078156zM460.018372,291.445648C460.88205,291.286072,461.35318,291.053558,461.794098,290.569214C462.355377,289.952728,462.394287,289.782959,462.394287,287.94928C462.394287,285.752075,462.21524,285.411377,460.735809,284.793243C459.62793,284.330322,456.280426,284.341827,455.345123,284.811768C454.09967,285.4375,453.893066,285.890045,453.887665,288.003845C453.883148,289.780212,453.923706,289.9552,454.483002,290.573853C455.363678,291.547943,457.577484,291.896606,460.018372,291.445648z"/>
    <path transform="matrix(-1,0,0,1,0,0)" style="stroke:none;fill:#0A2547;fill-rule:evenodd" d="M488.174438,293.354218C488.43454,292.844055,488.878479,292.060364,489.16095,291.61261C489.824982,290.56015,489.810303,289.90155,489.108215,289.245667C488.796753,288.954651,488.4039,288.451355,488.23526,288.127228C487.873962,287.432831,487.829803,285.187805,488.160248,284.311371C488.524017,283.346497,489.629944,282.347626,490.650909,282.061768C491.695374,281.769348,499.627502,281.824646,500.095642,282.127625C500.302979,282.26181,500.368439,283.743683,500.368439,288.303375L500.368439,294.302551L499.004425,294.23761L497.640411,294.172607L497.50061,292.608185C497.423737,291.747742,497.295166,290.9375,497.214935,290.807678C497.034668,290.516022,493.72702,290.489868,493.192566,290.775879C492.982666,290.888214,492.326202,291.718628,491.733795,292.621216L490.656647,294.262268L489.179108,294.272003L487.701508,294.281738L488.174438,293.354218zM496.556213,287.636475C496.972473,287.462555,497.313049,287.180206,497.313049,287.009033C497.313049,286.83786,497.372375,286.401154,497.444885,286.038544C497.544373,285.54126,497.463898,285.266449,497.117523,284.920044C496.707092,284.509613,496.406464,284.460846,494.287079,284.460846C492.218628,284.460846,491.842407,284.518585,491.34082,284.913177C490.231049,285.786102,490.912689,287.327454,492.573059,287.699585C493.980591,288.015076,495.715912,287.987579,496.556213,287.636475z"/>
    <path transform="matrix(-1,0,0,1,0,0)" style="stroke:none;fill:#0A2547;fill-rule:evenodd" d="M506.845215,293.75238C504.867828,292.783569,504.059174,291.64032,503.637177,289.216858C503.206268,286.742493,504.022339,284.138702,505.59256,282.977783C506.58252,282.24585,508.491364,281.841919,510.960175,281.841919C513.397217,281.841919,514.784058,282.187775,516.125,283.129974C517.500366,284.096283,518.114807,286.279816,517.786011,289.032593C517.474609,291.64032,516.69519,292.750244,514.491211,293.724976C513.361572,294.224548,512.958374,294.281036,510.565033,294.274902C508.211853,294.26889,507.773865,294.207367,506.845215,293.75238zM513.520264,291.246063C514.50293,290.872437,514.989014,289.818665,514.989014,288.061829C514.989014,286.236603,514.500488,285.253235,513.356079,284.775055C512.317566,284.341156,509.140717,284.359985,508.024323,284.806702C506.766235,285.310089,506.479218,285.884033,506.479218,287.896484C506.479218,290.13266,506.867249,290.753906,508.659973,291.388C509.5271,291.694733,512.574219,291.605743,513.520264,291.246063z"/>
    <path transform="matrix(-1,0,0,1,0,0)" style="stroke:none;fill:#0A2547;fill-rule:evenodd" d="M523.170227,293.987549C520.865234,292.673523,520.664978,292.075104,520.664978,286.500305L520.664978,282.288483L521.209595,281.93161C521.805908,281.540894,523.254883,281.666534,523.552856,282.134766C523.641296,282.273804,523.71521,284.32959,523.717041,286.703217L523.720337,291.018921L524.280151,291.23175C524.588074,291.348816,525.201904,291.445923,525.644165,291.447571C527.295532,291.453674,527.430481,291.57077,527.430481,292.997742L527.430481,294.281738L525.520874,294.260345C524.470581,294.248566,523.412781,294.125824,523.170227,293.987549z"/>
    <path transform="matrix(-1,0,0,1,0,0)" style="stroke:none;fill:#0A2547;fill-rule:evenodd" d="M529.875244,292.917725L529.940308,291.553711L534.154297,291.494385L538.368408,291.435089L538.300903,290.621429L538.233459,289.80777L535.06897,289.698669L531.904419,289.589539L531.839661,288.477875L531.774902,287.366241L534.682739,287.234802C536.282104,287.162506,537.764526,287.036621,537.977051,286.955078C538.290222,286.8349,538.351196,286.594666,538.298462,285.688354L538.233459,284.569946L534.133057,284.460846C529.658813,284.341766,529.622803,284.330353,529.616211,283.031342C529.61438,282.665253,529.730774,282.247864,529.874756,282.103821C530.064941,281.913666,531.678955,281.841919,535.767334,281.841919L541.397949,281.841919L541.397949,288.061829L541.397949,294.281738L535.604126,294.281738L529.810303,294.281738L529.875244,292.917725z"/>
    <path transform="matrix(-1,0,0,1,0,0)" style="stroke:none;fill:#0A2547;fill-rule:evenodd" d="M544.889893,288.061829L544.889893,281.841919L546.32251,281.841919C547.663208,281.841919,547.792847,281.886414,548.341309,282.534576C548.663574,282.915527,549.111572,283.529327,549.336731,283.89859C549.56189,284.267853,549.809692,284.61908,549.88739,284.679077C549.965088,284.739105,550.215332,285.082825,550.443542,285.442932C551.233337,286.689209,552.404053,287.952728,552.769165,287.952728C552.996704,287.952728,553.697266,287.071838,554.616577,285.629822C555.430969,284.352234,556.470093,282.9151,556.925598,282.436218C557.708252,281.613556,557.809448,281.571808,558.761108,281.679077C559.315063,281.741516,559.867065,281.891388,559.987793,282.012115C560.241638,282.26593,560.297729,284.203064,560.221375,290.080566L560.16687,294.281738L558.748291,294.281738L557.329712,294.281738L557.329712,290.911865C557.329712,288.879211,557.242249,287.487946,557.109314,287.405823C556.806763,287.218811,555.928223,287.947021,554.968018,289.180603C552.853577,291.897156,552.427917,292.007996,551.00061,290.213593C549.007996,287.708344,548.45105,287.081268,548.218018,287.080566C548.010864,287.079956,547.945251,287.945007,547.945251,290.680756L547.945251,294.281738L546.417603,294.281738L544.889893,294.281738L544.889893,288.061829z"/>
    <path transform="matrix(-1,0,0,1,0,0)" style="stroke:none;fill:#0A2547;fill-rule:evenodd" d="M568.460022,288.061829L568.460022,281.841919L569.878601,281.841919L571.29718,281.841919L571.29718,288.061829L571.29718,294.281738L569.878601,294.281738L568.460022,294.281738L568.460022,288.061829z"/>
    <path transform="matrix(-1,0,0,1,0,0)" style="stroke:none;fill:#0A2547;fill-rule:evenodd" d="M576.818359,293.716492C575.323425,292.993103,574.728149,292.048706,574.742798,290.423492C574.7547,289.097626,575.164063,288.459717,576.414673,287.817963C577.002075,287.516541,580.156677,287.116058,582.154724,287.089264C583.52887,287.070831,584.274048,285.516479,583.251953,284.800568C582.859741,284.525848,582.066162,284.460846,579.105347,284.460846L575.443787,284.460846L575.443787,283.48642C575.443787,282.699738,575.538391,282.46109,575.934814,282.247742C576.647217,281.864319,581.982178,281.721649,583.436462,282.047089C585.435181,282.494385,586.574158,283.804932,586.574158,285.657349C586.574158,288.007996,585.423584,288.993713,582.007141,289.569916C580.875732,289.760773,579.540527,289.916901,579.040161,289.916901C577.900146,289.916901,577.165039,290.561523,577.645264,291.140198C577.907471,291.456116,578.462158,291.489014,582.313049,291.417084L586.683228,291.33548L586.753479,291.830292C586.792114,292.102478,586.71875,292.643158,586.590515,293.03186C586.250244,294.062744,585.307617,294.283386,581.285217,294.273773C578.18042,294.266357,577.876282,294.228394,576.818359,293.716492z"/>
    <path transform="matrix(-1,0,0,1,0,0)" style="stroke:none;fill:#0A2547;fill-rule:evenodd" d="M599.227417,292.273407C599.221191,289.661133,599.058289,289.326324,595.091675,283.776611C594.608154,283.100189,594.212646,282.441895,594.212646,282.313721C594.212646,281.980194,595.67627,281.621796,596.425903,281.771729C596.933716,281.873291,597.336365,282.318329,598.440857,283.998688C600.08075,286.493713,600.401611,286.812927,600.874878,286.420166C601.242676,286.114899,602.225586,284.683472,602.703186,283.757507C602.871765,283.430725,603.278564,282.841461,603.607056,282.448059C604.144531,281.804596,604.316895,281.734436,605.324463,281.748871C607.10553,281.774384,607.136963,282.000458,605.662842,284.185486C604.953247,285.237183,603.879761,286.785126,603.277222,287.625366L602.181641,289.153046L602.070923,291.662842L601.960205,294.172607L600.596191,294.23761L599.232178,294.302551L599.227417,292.273407z"/>
</svg>
