<?xml version="1.0" encoding="UTF-8" standalone="no"?>
<svg xmlns="http://www.w3.org/2000/svg" xmlns:xlink="http://www.w3.org/1999/xlink" width="280.011mm" height="186.646mm" viewBox="-590.005371 206.676880 280.010742 186.646149">
    <path transform="matrix(-1,0,0,1,0,0)" style="stroke:none;fill:#0A2547;fill-rule:evenodd" d="M436.272095,210.171753C437.377686,212.093994,439.444031,214.895142,440.864014,216.396606C443.421295,219.100586,447.792725,222.275879,448.958038,222.275879C449.340576,222.275879,449.562469,221.273193,449.562469,219.544312C449.562469,217.16687,451.159943,210.105713,451.855042,209.410645C451.990356,209.275269,452.780151,210.6521,453.610107,212.470459C454.440063,214.288574,456.066132,216.744629,457.223602,217.928101C461.054779,221.845459,467.790253,225.905396,473.480896,227.727295C478.473999,229.325928,485.633118,233.019409,489.966827,236.232666C492.273773,237.943115,494.309143,239.581909,494.489868,239.874268C494.674042,240.172363,495.907318,239.317261,497.295837,237.928711C507.794556,227.429932,525.24292,230.654907,531.464172,244.243774C537.05481,256.455322,530.231628,270.453247,517.075623,273.762451C514.340271,274.450562,514.056519,274.977417,514.045288,279.390381C514.029114,285.705811,510.574524,298.217773,506.470001,306.826294C496.55423,327.623169,479.387024,340.32666,458.276062,342.488892C444.425232,343.907471,429.290405,339.893066,418.868042,332.036133C414.589386,328.810669,407.76886,321.734375,404.97937,317.626587C397.472168,306.571777,392.439667,292.150635,391.507813,279.022461L391.180054,274.405029L388.453033,273.7948C382.92038,272.556641,377.088043,267.981812,374.478271,262.83313C372.563782,259.056152,371.932465,255.92627,372.189484,251.486328C373.234863,233.428345,395.287109,225.147095,408.129791,237.989868L410.668274,240.52832L412.30658,239.194092C417.760101,234.753174,424.762451,230.648804,430.632202,228.452515C433.359009,227.432373,433.520874,227.276367,433.188324,225.989502C432.993042,225.233887,432.713623,221.922852,432.567383,218.631714C432.360229,213.969238,432.493164,211.988525,433.169403,209.662354C433.646759,208.020264,434.08786,206.67688,434.149658,206.67688C434.211426,206.67688,435.166565,208.249512,436.272095,210.171753zM437.203369,221.941162C437.343811,223.187134,438.053833,225.506348,438.781189,227.095093L440.103638,229.983765L435.691956,231.359253C427.433533,233.934082,419.542114,238.592163,412.687988,244.937866C410.930908,246.564575,409.441986,247.805298,409.379242,247.694824C409.316498,247.584473,408.817749,246.614624,408.270935,245.539795C406.924927,242.893921,403.017853,239.132324,400.165802,237.73645C398.556824,236.948853,396.583527,236.531494,393.848602,236.400269C390.407959,236.235229,389.452515,236.397461,386.768005,237.602173C383.3302,239.144897,380.020813,242.231934,378.379761,245.426514C373.030823,255.839111,380.099243,268.501465,391.846313,269.550781L395.226105,269.852661L395.628357,275.052246C397.203003,295.405396,403.758606,311.213989,415.475159,322.911987C425.418396,332.839478,436.03833,337.453369,450.342407,338.060303C466.675781,338.753418,479.385132,333.572021,490.935181,321.511353C497.948792,314.187744,502.551788,306.348633,505.975403,295.897339C508.164581,289.214355,509.160126,283.833252,509.653748,276.015259L510.019775,270.218628L513.328613,269.864258C519.813599,269.1698,524.895874,265.465576,527.669739,259.411865C529.443115,255.541626,529.29248,250.050049,527.302979,246.043091C523.602966,238.591309,515.370728,234.795532,507.728027,237.017334C503.039581,238.380371,499.715881,241.309204,496.763672,246.679199L495.868103,248.30835L491.564026,244.001465C486.817169,239.251587,481.906769,236.123535,474.260834,232.978638C464.461914,228.948364,460.423309,226.735718,456.322876,223.151123C454.040344,221.15564,453.753693,221.952026,455.236206,226.169922L456.282745,229.147583L453.83255,228.781372C449.107971,228.075317,443.914124,225.426147,439.163147,221.299072C438.162231,220.429688,437.254364,219.70874,437.145691,219.697144C437.036987,219.685425,437.062958,220.695313,437.203369,221.941162zM515.587463,245.804199C518.980225,247.537842,520.017761,249.254517,520.017761,253.134521C520.017761,256.626709,519.037659,258.483521,516.209839,260.348511C514.479187,261.489868,510.385193,261.56189,508.307648,260.487549C504.377106,258.454956,502.859619,252.462769,505.332947,248.740967C506.556641,246.899536,510.354645,244.634277,512.218323,244.634277C512.812073,244.634277,514.328186,245.160767,515.587463,245.804199zM510.035309,250.094604C508.659882,251.057983,508.050903,253.562012,508.83551,255.027954C510.27594,257.719482,514.531494,257.349609,515.544067,254.445068C516.81543,250.798096,513.156494,247.908447,510.035309,250.094604zM395.697327,245.159546C399.346252,246.290161,402.211975,251.044312,401.440491,254.687256C400.989075,256.818848,398.954681,259.506226,397.044922,260.493774C394.904449,261.600708,391.014679,261.486694,389.028076,260.258911C386.495483,258.693726,384.913147,255.463745,385.202698,252.450317C385.707031,247.201782,390.821533,243.648682,395.697327,245.159546zM390.904419,250.374146C388.35553,252.748779,389.960724,256.766846,393.458374,256.766846C396.822083,256.766846,398.317017,252.469116,395.675964,250.391602C393.942047,249.027832,392.355896,249.021973,390.904419,250.374146zM478.019043,254.186157C489.712646,257.168823,497.932678,267.494629,497.913086,279.17627C497.897156,288.661621,492.590302,297.458618,484.231262,301.856567C482.465271,302.785522,480.959381,303.591309,480.884827,303.646973C480.810272,303.702637,481.122559,304.779053,481.578796,306.039063C483.44574,311.195313,481.378357,318.308716,476.519775,323.445923C469.422943,330.949829,457.023132,334.40979,445.663147,332.055908C434.012878,329.641846,426.05423,323.173828,423.771759,314.264282C422.980438,311.175415,423.121735,308.625488,424.331177,304.17041C424.560364,303.32605,424.011902,302.788086,421.415588,301.310547C419.656738,300.30957,417.00235,298.147949,415.516907,296.506836C400.99472,280.462646,410.985168,255.494751,432.663605,253.654053C438.864258,253.127563,445.992615,255.5354,450.82428,259.78833L453.26001,261.932373L454.661011,260.639404C457.157867,258.335083,460.950806,256.035278,464.000305,254.97644C467.821899,253.649658,474.450653,253.276001,478.019043,254.186157zM463.592529,260.063477C460.282227,261.636108,456.621521,264.689697,454.350433,267.772705C453.269897,269.239624,453.166443,269.27417,452.61615,268.351563C450.333557,264.524658,445.54187,260.81665,440.826355,259.228149C430.673126,255.807739,419.825317,260.535645,414.9375,270.511353C413.641174,273.157227,413.473999,274.077148,413.450867,278.692017C413.431366,282.596924,413.671478,284.539063,414.415131,286.491577C416.683655,292.447266,420.924072,296.565552,427.311279,299.016113C429.397095,299.816406,431.177551,300.519409,431.267822,300.578369C431.358032,300.637207,430.706604,301.970703,429.820068,303.541504C424.333008,313.264038,430.895935,323.798096,444.628601,327.310181C454.611603,329.863403,465.894073,327.40271,472.489319,321.233643C478.264648,315.831421,479.238281,309.185791,475.200226,302.729248C474.311127,301.307739,474.15625,300.710938,474.637268,300.559814C475.002197,300.445068,476.587677,299.955688,478.160583,299.472412C482.224792,298.223267,484.846954,296.592773,487.704163,293.538208C493.56958,287.2677,495.027374,278.135254,491.423065,270.241211C489.043396,265.029419,483.072693,260.051514,477.494263,258.628418C476.573822,258.393555,473.82782,258.260132,471.392029,258.331787C467.686493,258.440796,466.412903,258.723633,463.592529,260.063477zM482.970245,266.514404C484.045807,267.140869,484.172729,269.222534,483.185333,270.041992C481.672668,271.297363,477.728027,272.275757,474.116241,272.291504C470.971771,272.305176,469.828857,272.056519,467.356689,270.820313C464.980743,269.632324,464.38147,269.082275,464.38147,268.089355C464.38147,265.944214,465.696838,265.640991,469.535583,266.901123C473.794495,268.299194,475.307098,268.313721,479.065491,266.992798C480.69281,266.420898,482.032379,265.959961,482.042267,265.96875C482.052185,265.977417,482.469788,266.223022,482.970245,266.514404zM437.524414,264.923218C442.305115,265.923218,445.190735,268.162354,444.044434,269.982666C443.197693,271.327148,441.973816,271.371216,439.155182,270.158813C436.169495,268.87439,432.111725,268.746216,429.463623,269.852661C426.641449,271.031738,425.203827,270.871216,424.817932,269.333862C424.325439,267.371582,424.760315,266.809082,427.544312,265.807983C430.754059,264.653809,434.604401,264.312378,437.524414,264.923218zM465.031433,295.320313C466.347748,296.276123,466.554932,297.769897,465.493469,298.650879C465.104126,298.973999,463.460571,299.330444,461.841156,299.442871C458.372498,299.683838,456.453522,300.776733,456.039337,302.746948C455.558716,305.033325,455.007477,305.719482,453.508301,305.897827C451.673462,306.115967,450.789551,305.330933,450.373474,303.113159C449.949097,300.851074,448.002686,299.75061,444.425781,299.75061C442.765869,299.75061,441.544159,299.45752,441.020203,298.933594C437.61084,295.52417,445.394897,293.490356,450.817627,296.373657L453.267639,297.67627L455.574585,296.324341C458.54068,294.58606,463.321289,294.078491,465.031433,295.320313zM438.600739,309.952271C442.328094,313.05957,445.560486,314.641235,449.767639,315.416382C452.753113,315.966553,453.752502,315.929932,457.063599,315.149414C461.030457,314.214233,464.740967,312.230835,467.576294,309.529907C469.400696,307.792236,470.647766,307.773438,471.770203,309.466675C472.471497,310.52478,472.380066,310.758667,470.44928,312.846558C466.416565,317.207275,458.893066,320.549194,453.10907,320.549194C447.032562,320.549194,440.698914,318.05542,435.913391,313.778687C432.898834,311.084595,432.227478,309.494141,433.547546,308.174072C434.594543,307.127075,435.662537,307.50293,438.600739,309.952271zM486.999969,275.203003C486.999969,275.428955,486.643799,276.981201,486.208466,278.652588C483.796692,287.911987,473.413269,291.705811,465.986572,286.04126C463.888031,284.440674,461.713104,280.411011,461.24823,277.262085L460.883636,274.792358L473.941803,274.792358C481.12381,274.792358,486.999969,274.977173,486.999969,275.203003zM476.341919,280.020142C475.250763,281.718872,471.272522,281.081299,470.850555,279.945923C470.661133,279.059692,469.958954,279.445068,468.438812,279.271362L466.327637,279.346313L467.95755,281.387207C469.662903,283.406738,472.363831,284.37793,474.944672,283.899536C477.251404,283.471924,479.74057,282.00293,480.634827,280.541504C481.255524,279.526978,481.175049,279.472046,479.070007,279.472046C477.41394,279.472046,476.932037,279.182007,476.341919,280.020142zM446.233276,277.002197C445.092957,284.362671,439.048096,289.4552,432.387878,288.666382C426.280029,287.943115,421.926758,283.486328,420.740295,276.742065L420.397278,274.792358L433.48645,274.792358L446.575592,274.792358L446.233276,277.002197zM435.822754,279.839966C435.548401,280.143188,435.600708,280.401489,435.203064,280.727661C434.847382,281.019287,434.049438,281.396851,433.664856,281.396851C432.753082,281.396851,431.644531,281.154785,431.243011,280.511841C431.035034,280.178833,430.884216,279.363159,430.490875,279.340576C429.896973,279.306519,429.435242,279.333984,428.669556,279.333984C427.594421,279.333984,426.534973,279.207153,426.534973,279.463501C426.534973,280.42981,430.275879,283.506958,432.075104,283.844482C435.424835,284.4729,438.807587,282.963257,440.416412,280.121948C440.531555,279.918579,440.872437,279.27417,440.665039,279.240967C439.989166,279.132568,439.074646,279.193726,438.209473,279.188599C437.523163,279.18457,436.956451,279.195435,436.426208,279.229248C435.700684,279.275513,436.057861,279.45459,435.822754,279.839966z"/>
    <path transform="matrix(-1,0,0,1,0,0)" style="stroke:none;fill:#0A2547;fill-rule:evenodd" d="M525.58667,393.269531C524.183289,393.241211,522.78717,393.057617,521.424194,392.721802C519.73999,392.358643,518.22229,391.448486,517.108521,390.134033C516.046997,388.552612,515.653015,386.615479,516.012451,384.745239C516.215576,383.186035,517.106873,381.798584,518.440552,380.965698C520.243835,379.933472,522.270874,379.35791,524.347412,379.288208C525.470642,379.208496,526.595947,379.163452,527.721863,379.152832L528.283203,379.118286C529.182312,379.106934,530.070435,378.920654,530.898376,378.569946C531.426758,378.19751,531.666809,377.539185,531.502197,376.914063C531.324951,376.426392,530.911072,376.062744,530.404724,375.949707C529.142761,375.588989,527.83136,375.433716,526.520081,375.489868C523.349243,375.512573,520.192505,375.915771,517.117859,376.690918L517.117859,371.343262C521.709717,370.179443,526.487305,369.952148,531.169006,370.674683C532.953613,370.960938,534.60437,371.799072,535.888428,373.071045C536.978943,374.367676,537.514893,376.04126,537.38031,377.730103C537.484436,379.97876,536.222168,382.07251,534.185059,383.030273C532.320313,383.845459,530.312988,384.284058,528.278137,384.320679C527.58783,384.362061,526.896423,384.384644,526.204834,384.388306L525.582336,384.41272C524.678955,384.42981,523.780334,384.547485,522.903076,384.763916C522.132935,384.9198,521.62439,385.659302,521.754517,386.434326C521.849548,387.0354,522.306335,387.516846,522.901672,387.643311C524.149597,388.006836,525.448181,388.163574,526.746765,388.107422C530.35968,388.059204,533.957153,387.623901,537.477417,386.809204L537.477417,392.254761C533.57019,393.077393,529.576782,393.418091,525.58667,393.269531z"/>
    <path transform="matrix(-1,0,0,1,0,0)" style="stroke:none;fill:#0A2547;fill-rule:evenodd" d="M481.062714,385.509521C478.890045,385.784668,476.699524,385.892944,474.510315,385.833374L470.164337,392.6427L464.526611,392.6427L464.526611,391.345825L468.544403,384.991333L467.591614,384.484009C466.23941,383.628662,465.311493,382.242432,465.036133,380.66626C464.762634,378.959595,464.761658,377.221191,465.033264,375.514282C465.387177,373.599365,466.68985,371.99292,468.490448,371.251099C470.277954,370.53418,472.196411,370.201172,474.120972,370.273804C478.388153,370.241943,482.653381,370.458252,486.895447,370.921509L486.895447,392.6427L481.062714,392.6427L481.062714,385.509521zM476.428162,380.649048C477.977264,380.639648,479.524628,380.542358,481.062714,380.357544L481.062714,375.749634C478.441895,375.473145,475.803467,375.403809,473.171753,375.542358C472.483643,375.568604,471.814209,375.77417,471.230133,376.138916C470.918671,376.375,470.726746,376.735474,470.704803,377.12561C470.596283,377.878906,470.66333,378.647705,470.900543,379.370972C471.189575,379.891724,471.704102,380.249146,472.29306,380.338135C473.655762,380.594727,475.042419,380.698975,476.428162,380.649048z"/>
    <path transform="matrix(-1,0,0,1,0,0)" style="stroke:none;fill:#0A2547;fill-rule:evenodd" d="M445.890564,393.220581C443.799561,393.077393,441.724823,392.754272,439.689362,392.254761L439.689362,386.939453C443.374207,388.053589,447.248108,388.399414,451.072052,387.955566C452.259979,387.828735,453.357178,387.26062,454.146393,386.36377C454.691101,385.523682,454.975067,384.541016,454.962463,383.539795C455.095795,381.854126,455.022064,380.158447,454.742981,378.490723C454.407532,377.221313,453.416107,376.230469,452.146484,375.895752C449.917908,375.373657,447.612885,375.265015,445.345093,375.575439C443.431061,375.74707,441.537445,376.098633,439.689362,376.625488L439.689362,371.343262C444.125153,370.194092,448.747223,369.960205,453.276337,370.656006C455.720581,371.046753,457.904785,372.404785,459.336487,374.424072C460.259949,375.961792,460.798523,377.699219,460.906769,379.489624C461.044647,381.479004,460.983185,383.476929,460.723267,385.454102C460.512207,386.763306,460.040588,388.01709,459.336487,389.140869C457.904877,391.160156,455.720642,392.518311,453.276337,392.908936C450.837494,393.324219,448.355682,393.428955,445.890564,393.220581z"/>
    <path transform="matrix(-1,0,0,1,0,0)" style="stroke:none;fill:#0A2547;fill-rule:evenodd" d="M430.156189,385.509521C427.983521,385.784668,425.792938,385.892944,423.60376,385.833374L419.257813,392.6427L413.620056,392.6427L413.620056,391.345825L417.637878,384.991333L416.685059,384.484009C415.332886,383.628662,414.404968,382.242432,414.129578,380.66626C413.856079,378.959595,413.855103,377.221191,414.126709,375.514282C414.48114,373.599487,415.78363,371.993408,417.583893,371.251099C419.371643,370.534058,421.290344,370.201172,423.215149,370.273804C427.481995,370.241943,431.747192,370.458252,435.988922,370.921509L435.988922,392.6427L430.156189,392.6427L430.156189,385.509521zM425.521606,380.649048C427.07074,380.639648,428.618103,380.542358,430.156189,380.357544L430.156189,375.749634C427.535645,375.473145,424.897369,375.403809,422.26593,375.542358C421.577576,375.568359,420.907867,375.774048,420.323608,376.138916C420.012146,376.375,419.82019,376.735474,419.798279,377.12561C419.689758,377.878906,419.756775,378.647705,419.994019,379.370972C420.28302,379.891724,420.797546,380.249146,421.386536,380.338135C422.749207,380.594727,424.135864,380.698975,425.521606,380.649048z"/>
    <path transform="matrix(-1,0,0,1,0,0)" style="stroke:none;fill:#0A2547;fill-rule:evenodd" d="M319.691467,393.269531C317.626709,393.282959,315.581635,392.866211,313.686707,392.046143C311.246124,391.011719,309.760223,388.505493,310.023712,385.86792C309.927216,383.584229,311.226196,381.466064,313.305298,380.516602C315.397217,379.625977,317.651154,379.178345,319.924622,379.201782L321.2164,379.176636C322.315857,379.18396,323.412262,379.056641,324.480743,378.797363C325.25647,378.636719,325.770905,377.895508,325.650146,377.112671C325.547699,376.526733,325.093384,376.063477,324.509521,375.949707C323.247284,375.589111,321.935699,375.433838,320.624115,375.489868C317.453583,375.512573,314.297089,375.915894,311.222626,376.690918L311.222626,371.343262C315.814301,370.179443,320.591644,369.952148,325.273071,370.674683C327.057892,370.96106,328.708771,371.799194,329.993256,373.071045C331.083893,374.367432,331.619598,376.041382,331.484344,377.730103C331.589233,379.978882,330.326752,382.07312,328.289124,383.030273C326.424438,383.845703,324.417084,384.28418,322.382233,384.320679C321.691895,384.362061,321.000458,384.384644,320.308929,384.388306L319.686432,384.41272C318.783051,384.42981,317.88443,384.547607,317.007172,384.763916C316.237122,384.919922,315.728668,385.659424,315.858612,386.434326C315.954224,387.0354,316.411133,387.516602,317.006439,387.643311C318.254364,388.006836,319.552948,388.163574,320.851532,388.107422C324.464478,388.059204,328.062012,387.623901,331.582214,386.809204L331.582214,392.254761C327.674988,393.077393,323.68161,393.418091,319.691467,393.269531z"/>
    <path transform="matrix(-1,0,0,1,0,0)" style="stroke:none;fill:#0A2547;fill-rule:evenodd" d="M569.225464,387.459106L584.172607,387.459106L584.172607,370.922241L590.005371,370.922241L590.005371,392.6427L569.225464,392.6427L569.225464,387.459106z"/>
    <path transform="matrix(-1,0,0,1,0,0)" style="stroke:none;fill:#0A2547;fill-rule:evenodd" d="M558.91217,388.427734L547.985046,388.427734L546.104614,392.6427L540.851868,392.6427L540.851868,391.345825L550.513855,370.922241L556.350952,370.922241L566.012939,391.345825L566.012939,392.6427L560.760254,392.6427L558.91217,388.427734zM556.739563,383.567871L553.432068,376.142578L550.125244,383.567871L556.739563,383.567871z"/>
    <path transform="matrix(-1,0,0,1,0,0)" style="stroke:none;fill:#0A2547;fill-rule:evenodd" d="M490.757813,387.459106L505.705658,387.459106L505.705658,384.536499L494.000549,384.536499L494.000549,379.352905L505.705658,379.352905L505.705658,376.106567L490.757813,376.106567L490.757813,370.922241L511.537689,370.922241L511.537689,392.6427L490.757813,392.6427L490.757813,387.459106z"/>
    <path transform="matrix(-1,0,0,1,0,0)" style="stroke:none;fill:#0A2547;fill-rule:evenodd" d="M403.274414,388.427734L392.347229,388.427734L390.466797,392.6427L385.214081,392.6427L385.214081,391.345825L394.876801,370.922241L400.713165,370.922241L410.375183,391.345825L410.375183,392.6427L405.122437,392.6427L403.274414,388.427734zM401.101776,383.567871L397.794983,376.142578L394.487488,383.567871L401.101776,383.567871z"/>
    <path transform="matrix(-1,0,0,1,0,0)" style="stroke:none;fill:#0A2547;fill-rule:evenodd" d="M375.683044,384.536499L363.977966,384.536499L363.977966,379.352905L375.683044,379.352905L375.683044,376.106567L360.735229,376.106567L360.735229,370.922241L381.515808,370.922241L381.515808,392.6427L375.683044,392.6427L375.683044,384.536499z"/>
    <path transform="matrix(-1,0,0,1,0,0)" style="stroke:none;fill:#0A2547;fill-rule:evenodd" d="M343.258545,376.106567L334.796173,376.106567L334.796173,370.922241L357.52124,370.922241L357.52124,376.106567L349.091309,376.106567L349.091309,392.6427L343.258545,392.6427L343.258545,376.106567z"/>
</svg>
